<svg width="245" height="52" viewBox="0 0 245 52" fill="none" xmlns="http://www.w3.org/2000/svg">
<g clip-path="url(#clip0_111_37)">
<path d="M60.3916 38V15.8701H66.3706V33.1714H74.8926V38H60.3916ZM85.8062 20.5474C87.4712 20.5474 88.9092 20.84 90.1201 21.4253C91.3311 22.0005 92.2645 22.8683 92.9204 24.0288C93.5763 25.1893 93.9043 26.6424 93.9043 28.3882V31.022H83.3237C83.3742 31.9201 83.7072 32.6567 84.3228 33.2319C84.9484 33.8071 85.8667 34.0947 87.0776 34.0947C88.1473 34.0947 89.1261 33.9888 90.0142 33.7769C90.9123 33.5649 91.8356 33.237 92.7842 32.793V37.0464C91.9567 37.4803 91.0535 37.7982 90.0747 38C89.0959 38.2018 87.8597 38.3027 86.3662 38.3027C84.6406 38.3027 83.0967 37.995 81.7344 37.3794C80.3721 36.7638 79.2974 35.8102 78.5103 34.5186C77.7332 33.2269 77.3447 31.5669 77.3447 29.5386C77.3447 27.48 77.6979 25.7897 78.4043 24.4678C79.1107 23.1357 80.0996 22.1519 81.3711 21.5161C82.6426 20.8703 84.1209 20.5474 85.8062 20.5474ZM86.0181 24.5737C85.3218 24.5737 84.7365 24.7957 84.2622 25.2397C83.798 25.6737 83.5256 26.3599 83.4448 27.2983H88.5308C88.5207 26.7938 88.4198 26.3346 88.228 25.9209C88.0363 25.5072 87.7537 25.1792 87.3804 24.937C87.0171 24.6948 86.563 24.5737 86.0181 24.5737ZM103.168 38H97.2495V14.4473H103.168V38ZM115.641 20.5474C117.81 20.5474 119.506 21.0872 120.727 22.167C121.948 23.2367 122.558 24.7655 122.558 26.7534V38H118.456L117.321 35.7295H117.2C116.715 36.335 116.216 36.8294 115.701 37.2129C115.197 37.5863 114.616 37.8587 113.96 38.0303C113.305 38.2119 112.502 38.3027 111.554 38.3027C110.565 38.3027 109.677 38.1009 108.89 37.6973C108.103 37.2936 107.482 36.6831 107.028 35.8657C106.574 35.0483 106.347 34.014 106.347 32.7627C106.347 30.9261 106.982 29.5638 108.254 28.6758C109.525 27.7878 111.367 27.2882 113.779 27.1772L116.64 27.0864V26.8442C116.64 26.0773 116.448 25.5324 116.064 25.2095C115.691 24.8866 115.187 24.7251 114.551 24.7251C113.875 24.7251 113.118 24.8462 112.28 25.0884C111.453 25.3205 110.62 25.6232 109.783 25.9966L108.072 22.0913C109.061 21.5868 110.181 21.2033 111.433 20.9409C112.684 20.6785 114.087 20.5474 115.641 20.5474ZM116.67 30.3408L115.308 30.4014C114.218 30.4417 113.451 30.6335 113.007 30.9766C112.573 31.3096 112.356 31.7889 112.356 32.4146C112.356 32.9998 112.512 33.4338 112.825 33.7163C113.138 33.9888 113.552 34.125 114.066 34.125C114.783 34.125 115.393 33.8979 115.898 33.4438C116.413 32.9897 116.67 32.3994 116.67 31.6729V30.3408ZM137.316 20.5474C139.082 20.5474 140.525 21.0469 141.646 22.0459C142.766 23.0449 143.326 24.6444 143.326 26.8442V38H137.407V28.6455C137.407 27.5052 137.241 26.6475 136.908 26.0723C136.585 25.487 136.06 25.1943 135.333 25.1943C134.213 25.1943 133.462 25.6535 133.078 26.5718C132.695 27.48 132.503 28.7868 132.503 30.4922V38H126.584V20.8501H131.05L131.852 23.1206H132.079C132.442 22.5757 132.876 22.1115 133.381 21.728C133.885 21.3446 134.466 21.0519 135.122 20.8501C135.778 20.6483 136.509 20.5474 137.316 20.5474ZM153.21 45.4473C150.778 45.4473 148.901 45.0386 147.579 44.2212C146.267 43.4139 145.611 42.2484 145.611 40.7246C145.611 39.7054 145.929 38.8628 146.565 38.1968C147.201 37.5308 148.154 37.0514 149.426 36.7588C148.901 36.5368 148.442 36.1785 148.048 35.6841C147.665 35.1896 147.473 34.7002 147.473 34.2158C147.473 33.681 147.619 33.2118 147.912 32.8081C148.205 32.3944 148.815 31.9049 149.744 31.3398C148.856 30.9463 148.154 30.3307 147.64 29.4932C147.135 28.6556 146.883 27.6364 146.883 26.4355C146.883 25.1943 147.165 24.1348 147.73 23.2568C148.306 22.3789 149.138 21.7078 150.228 21.2437C151.328 20.7795 152.665 20.5474 154.239 20.5474C154.451 20.5474 154.774 20.5675 155.208 20.6079C155.642 20.6382 156.081 20.6785 156.525 20.729C156.969 20.7694 157.312 20.8097 157.554 20.8501H163.533V23.7109L161.187 24.5737C161.348 24.8664 161.47 25.1842 161.55 25.5273C161.631 25.8704 161.671 26.2337 161.671 26.6172C161.671 28.4639 161.021 29.8968 159.719 30.916C158.427 31.9352 156.495 32.4448 153.921 32.4448C153.286 32.4448 152.781 32.4045 152.408 32.3237C152.337 32.4549 152.282 32.5861 152.241 32.7173C152.211 32.8384 152.196 32.9544 152.196 33.0654C152.196 33.2975 152.332 33.4842 152.604 33.6255C152.887 33.7567 153.225 33.8475 153.619 33.8979C154.022 33.9484 154.406 33.9736 154.769 33.9736H157.615C159.542 33.9736 160.985 34.3773 161.944 35.1846C162.903 35.9919 163.382 37.2078 163.382 38.8325C163.382 40.9214 162.489 42.5461 160.703 43.7065C158.927 44.867 156.429 45.4473 153.21 45.4473ZM153.498 41.7539C154.214 41.7539 154.936 41.6883 155.662 41.5571C156.389 41.436 156.999 41.2342 157.494 40.9517C157.988 40.6691 158.235 40.2957 158.235 39.8315C158.235 39.4784 158.089 39.2109 157.796 39.0293C157.504 38.8577 157.125 38.7417 156.661 38.6812C156.197 38.6206 155.708 38.5903 155.193 38.5903H152.892C152.468 38.5903 152.08 38.6559 151.727 38.7871C151.383 38.9284 151.111 39.1151 150.909 39.3472C150.707 39.5793 150.606 39.8416 150.606 40.1343C150.606 40.6187 150.869 41.0072 151.394 41.2998C151.918 41.6025 152.62 41.7539 153.498 41.7539ZM154.3 29.0996C154.865 29.0996 155.299 28.8826 155.602 28.4487C155.914 28.0148 156.071 27.3639 156.071 26.4961C156.071 25.6081 155.924 24.9421 155.632 24.498C155.339 24.054 154.895 23.832 154.3 23.832C153.684 23.832 153.225 24.054 152.922 24.498C152.62 24.932 152.468 25.5879 152.468 26.4658C152.468 27.3438 152.62 28.0047 152.922 28.4487C153.225 28.8826 153.684 29.0996 154.3 29.0996ZM172.101 20.8501V38H166.182V20.8501H172.101ZM169.164 13.9478C170.012 13.9478 170.748 14.1243 171.374 14.4775C172.01 14.8307 172.328 15.5321 172.328 16.5815C172.328 17.6007 172.01 18.292 171.374 18.6553C170.748 19.0085 170.012 19.1851 169.164 19.1851C168.296 19.1851 167.555 19.0085 166.939 18.6553C166.333 18.292 166.031 17.6007 166.031 16.5815C166.031 15.5321 166.333 14.8307 166.939 14.4775C167.555 14.1243 168.296 13.9478 169.164 13.9478ZM186.965 20.5474C188.731 20.5474 190.174 21.0469 191.294 22.0459C192.414 23.0449 192.974 24.6444 192.974 26.8442V38H187.056V28.6455C187.056 27.5052 186.889 26.6475 186.556 26.0723C186.233 25.487 185.708 25.1943 184.982 25.1943C183.862 25.1943 183.11 25.6535 182.727 26.5718C182.343 27.48 182.151 28.7868 182.151 30.4922V38H176.233V20.8501H180.698L181.5 23.1206H181.728C182.091 22.5757 182.525 22.1115 183.029 21.728C183.534 21.3446 184.114 21.0519 184.77 20.8501C185.426 20.6483 186.158 20.5474 186.965 20.5474ZM210.926 38L209.836 33.8525H202.646L201.526 38H194.957L202.177 15.7793H210.154L217.465 38H210.926ZM208.595 28.9482L207.642 25.3154C207.541 24.9219 207.394 24.3618 207.203 23.6353C207.011 22.8986 206.819 22.1418 206.627 21.3647C206.446 20.5776 206.305 19.9318 206.204 19.4272C206.113 19.9318 205.982 20.5575 205.81 21.3042C205.649 22.0409 205.477 22.7725 205.295 23.499C205.124 24.2256 204.972 24.8311 204.841 25.3154L203.888 28.9482H208.595ZM219.085 45.4473C218.611 45.4473 218.066 45.4069 217.45 45.3262C216.825 45.2555 216.31 45.1698 215.906 45.0688V40.4521C216.229 40.543 216.527 40.6086 216.799 40.6489C217.072 40.6994 217.38 40.7246 217.723 40.7246C218.207 40.7246 218.626 40.5531 218.979 40.21C219.342 39.877 219.524 39.1908 219.524 38.1514V20.8501H225.442V39.3926C225.442 40.4219 225.241 41.3957 224.837 42.314C224.433 43.2424 223.767 43.9941 222.839 44.5693C221.91 45.1546 220.659 45.4473 219.085 45.4473ZM219.373 16.5815C219.373 15.5321 219.675 14.8307 220.281 14.4775C220.896 14.1243 221.638 13.9478 222.506 13.9478C223.354 13.9478 224.09 14.1243 224.716 14.4775C225.352 14.8307 225.669 15.5321 225.669 16.5815C225.669 17.6007 225.352 18.292 224.716 18.6553C224.09 19.0085 223.354 19.1851 222.506 19.1851C221.638 19.1851 220.896 19.0085 220.281 18.6553C219.675 18.292 219.373 17.6007 219.373 16.5815ZM237.945 20.5474C240.115 20.5474 241.81 21.0872 243.031 22.167C244.252 23.2367 244.863 24.7655 244.863 26.7534V38H240.761L239.625 35.7295H239.504C239.02 36.335 238.521 36.8294 238.006 37.2129C237.501 37.5863 236.921 37.8587 236.265 38.0303C235.609 38.2119 234.807 38.3027 233.858 38.3027C232.869 38.3027 231.981 38.1009 231.194 37.6973C230.407 37.2936 229.787 36.6831 229.333 35.8657C228.878 35.0483 228.651 34.014 228.651 32.7627C228.651 30.9261 229.287 29.5638 230.559 28.6758C231.83 27.7878 233.672 27.2882 236.083 27.1772L238.944 27.0864V26.8442C238.944 26.0773 238.753 25.5324 238.369 25.2095C237.996 24.8866 237.491 24.7251 236.855 24.7251C236.179 24.7251 235.423 24.8462 234.585 25.0884C233.757 25.3205 232.925 25.6232 232.087 25.9966L230.377 22.0913C231.366 21.5868 232.486 21.2033 233.737 20.9409C234.989 20.6785 236.391 20.5474 237.945 20.5474ZM238.975 30.3408L237.612 30.4014C236.522 30.4417 235.756 30.6335 235.312 30.9766C234.878 31.3096 234.661 31.7889 234.661 32.4146C234.661 32.9998 234.817 33.4338 235.13 33.7163C235.443 33.9888 235.856 34.125 236.371 34.125C237.088 34.125 237.698 33.8979 238.203 33.4438C238.717 32.9897 238.975 32.3994 238.975 31.6729V30.3408Z" fill="white"/>
<path d="M23.4278 24.8506C17.1334 31.5353 10.6056 38.5368 7.0774 42.3147M23.4278 24.8506C25.4456 26.0642 26.7012 25.9447 28.5724 24.4983M23.4278 24.8506C22.2836 23.9128 21.6477 23.3206 20.5384 21.9612M20.5384 21.9612C20.5384 21.9612 7.93174 34.0678 3.14427 38.3816M20.5384 21.9612C19.4051 20.1691 19.4474 18.9225 20.7498 16.6757M3.14427 38.3816C2.61045 38.8626 2.17384 39.2476 1.86277 39.5092C-1.23809 42.1167 2.8494 46.8385 5.87979 43.5967C6.22389 43.2286 6.62545 42.7987 7.0774 42.3147M3.14427 38.3816L7.0774 42.3147M18.0718 13.9976L20.7498 16.6757M18.0718 13.9976L26.5286 5.54076M18.0718 13.9976C14.689 16.1823 12.7158 12.0948 14.4776 10.4035C16.2394 8.71211 20.8907 3.77891 22.9345 1.94659C24.9782 0.114267 28.7133 2.29896 26.5286 5.54076M31.3913 27.3172L28.5724 24.4983M31.3913 27.3172L39.8482 18.8603M31.3913 27.3172C29.2066 29.3609 32.3075 33.3075 34.915 30.8409C37.5225 28.3743 41.3282 24.4983 43.3719 22.384C45.4156 20.2698 42.5967 16.6052 39.8482 18.8603M20.7498 16.6757L28.5724 24.4983M39.8482 18.8603L26.5286 5.54076" stroke="#0167F4" stroke-width="1.97327"/>
<path d="M45.486 44.8652C48.6585 45.1675 49.4466 46.3682 49.3621 49.9393H22.582C22.44 46.3886 23.0578 45.0482 26.5285 44.8652M45.486 44.8652H26.5285M45.486 44.8652C45.4278 42.1357 45.2319 40.7703 43.0899 40.1434H29.418C26.9151 40.3619 26.5099 41.6648 26.5285 44.8652" stroke="#0167F4" stroke-width="1.97327"/>
</g>
<defs>
<clipPath id="clip0_111_37">
<rect width="245" height="51.2" fill="white"/>
</clipPath>
</defs>
</svg>
